<svg width="35" height="38" viewBox="0 0 35 38" fill="none" xmlns="http://www.w3.org/2000/svg">
<path d="M4.32 33.5801H10.8V22.7801C10.8 22.1681 11.007 21.6551 11.421 21.2411C11.835 20.8271 12.348 20.6201 12.96 20.6201H21.6C22.212 20.6201 22.725 20.8271 23.139 21.2411C23.553 21.6551 23.76 22.1681 23.76 22.7801V33.5801H30.24V14.1401L17.28 4.4201L4.32 14.1401V33.5801ZM0 33.5801V14.1401C0 13.4561 0.153 12.8081 0.459 12.1961C0.765 11.5841 1.188 11.0801 1.728 10.6841L14.688 0.964098C15.444 0.388098 16.308 0.100098 17.28 0.100098C18.252 0.100098 19.116 0.388098 19.872 0.964098L32.832 10.6841C33.372 11.0801 33.795 11.5841 34.101 12.1961C34.407 12.8081 34.56 13.4561 34.56 14.1401V33.5801C34.56 34.7681 34.137 35.7851 33.291 36.6311C32.445 37.4771 31.428 37.9001 30.24 37.9001H21.6C20.988 37.9001 20.475 37.6931 20.061 37.2791C19.647 36.8651 19.44 36.3521 19.44 35.7401V24.9401H15.12V35.7401C15.12 36.3521 14.913 36.8651 14.499 37.2791C14.085 37.6931 13.572 37.9001 12.96 37.9001H4.32C3.132 37.9001 2.115 37.4771 1.269 36.6311C0.423 35.7851 0 34.7681 0 33.5801Z" fill="black"/>
</svg>
