<svg width="39" height="39" viewBox="0 0 39 39" fill="none" xmlns="http://www.w3.org/2000/svg">
<path d="M3.49669 38.3922C3.12631 38.7644 2.62324 38.9742 2.09814 38.9756C1.57303 38.9769 1.06892 38.7695 0.696687 38.3992C0.324455 38.0288 0.1146 37.5257 0.113287 37.0006C0.111975 36.4755 0.319312 35.9714 0.689686 35.5992L24.8915 11.2812C25.2619 10.9089 25.7649 10.6991 26.29 10.6978C26.8151 10.6964 27.3193 10.9038 27.6915 11.2742C28.0637 11.6445 28.2736 12.1476 28.2749 12.6727C28.2762 13.1978 28.0689 13.7019 27.6985 14.0742L3.49669 38.3922Z" fill="url(#paint0_linear_2319_97)"/>
<path d="M3.49669 38.3922C3.12631 38.7644 2.62324 38.9742 2.09814 38.9756C1.57303 38.9769 1.06892 38.7695 0.696687 38.3992C0.324455 38.0288 0.1146 37.5257 0.113287 37.0006C0.111975 36.4755 0.319312 35.9714 0.689686 35.5992L24.8915 11.2812C25.2619 10.9089 25.7649 10.6991 26.29 10.6978C26.8151 10.6964 27.3193 10.9038 27.6915 11.2742C28.0637 11.6445 28.2736 12.1476 28.2749 12.6727C28.2762 13.1978 28.0689 13.7019 27.6985 14.0742L3.49669 38.3922Z" fill="url(#paint1_linear_2319_97)"/>
<g filter="url(#filter0_ii_2319_97)">
<path fill-rule="evenodd" clip-rule="evenodd" d="M32.7288 8.03595C32.6736 7.78243 32.5487 7.54938 32.3681 7.3631C32.1875 7.17682 31.9584 7.04473 31.7068 6.98175C31.0556 6.80379 30.4235 6.5623 29.8196 6.26075C29.6902 6.20054 29.5808 6.10465 29.5041 5.98436C29.4275 5.86408 29.3867 5.7244 29.3867 5.58175C29.3867 5.4391 29.4275 5.29942 29.5041 5.17914C29.5808 5.05885 29.6902 4.96296 29.8196 4.90275C30.4235 4.60169 31.0556 4.36066 31.7068 4.18315C31.9584 4.12017 32.1875 3.98809 32.3681 3.80181C32.5487 3.61553 32.6736 3.38247 32.7288 3.12895C32.8856 2.34915 33.1404 1.38595 33.5268 0.445151C33.5726 0.315009 33.6576 0.202293 33.7702 0.122558C33.8828 0.0428224 34.0174 0 34.1554 0C34.2933 0 34.4279 0.0428224 34.5405 0.122558C34.6531 0.202293 34.7381 0.315009 34.784 0.445151C35.1704 1.38595 35.4252 2.34915 35.5806 3.12895C35.6358 3.3824 35.7608 3.61538 35.9414 3.80163C36.122 3.98789 36.3509 4.12002 36.6026 4.18315C37.1724 4.33295 37.7884 4.56535 38.4814 4.90275C39.0554 5.18275 39.0554 5.98075 38.4814 6.26075C37.8802 6.56203 37.2509 6.80353 36.6026 6.98175C36.3511 7.04477 36.1223 7.17669 35.9417 7.36269C35.7612 7.54868 35.6361 7.78136 35.5806 8.03455C35.3995 8.95269 35.1323 9.85173 34.7826 10.7198C34.7365 10.8494 34.6514 10.9616 34.5389 11.041C34.4265 11.1203 34.2923 11.1629 34.1547 11.1629C34.017 11.1629 33.8828 11.1203 33.7704 11.041C33.658 10.9616 33.5729 10.8494 33.5268 10.7198C33.1771 9.8517 32.9099 8.95407 32.7288 8.03595Z" fill="url(#paint2_linear_2319_97)"/>
</g>
<g filter="url(#filter1_ii_2319_97)">
<path fill-rule="evenodd" clip-rule="evenodd" d="M16.9676 7.41558C16.9263 7.22581 16.8326 7.0514 16.6973 6.9121C16.562 6.77279 16.3903 6.67417 16.2018 6.62738C15.7154 6.49472 15.2432 6.31466 14.792 6.08978C14.6954 6.04472 14.6137 5.97303 14.5564 5.88314C14.4992 5.79324 14.4688 5.68887 14.4688 5.58228C14.4688 5.4757 14.4992 5.37132 14.5564 5.28143C14.6137 5.19153 14.6954 5.11984 14.792 5.07478C15.3114 4.82278 15.7748 4.64778 16.2018 4.53578C16.3901 4.4891 16.5617 4.39069 16.697 4.25165C16.8323 4.11261 16.926 3.9385 16.9676 3.74898C17.0824 3.16518 17.2742 2.44698 17.5626 1.74138C17.5971 1.64434 17.6607 1.56035 17.7448 1.50096C17.8289 1.44156 17.9293 1.40967 18.0323 1.40967C18.1353 1.40967 18.2357 1.44156 18.3198 1.50096C18.4039 1.56035 18.4676 1.64434 18.502 1.74138C18.7904 2.44558 18.9808 3.16518 19.097 3.74898C19.1386 3.93825 19.2322 4.11217 19.3672 4.25116C19.5023 4.39016 19.6734 4.48873 19.8614 4.53578C20.2884 4.64778 20.7476 4.82138 21.2656 5.07478C21.3622 5.11984 21.4439 5.19153 21.5012 5.28143C21.5585 5.37132 21.5889 5.4757 21.5889 5.58228C21.5889 5.68887 21.5585 5.79324 21.5012 5.88314C21.4439 5.97303 21.3622 6.04472 21.2656 6.08978C20.8163 6.31461 20.346 6.49468 19.8614 6.62738C19.6732 6.67455 19.502 6.77332 19.3669 6.91258C19.2319 7.05184 19.1384 7.22605 19.097 7.41558C18.9808 7.99938 18.7904 8.71758 18.502 9.42178C18.4676 9.51882 18.4039 9.60281 18.3198 9.6622C18.2357 9.7216 18.1353 9.75349 18.0323 9.75349C17.9293 9.75349 17.8289 9.7216 17.7448 9.6622C17.6607 9.60281 17.5971 9.51882 17.5626 9.42178C17.3018 8.7732 17.1025 8.10151 16.9676 7.41558Z" fill="url(#paint3_linear_2319_97)"/>
</g>
<g filter="url(#filter2_ii_2319_97)">
<path fill-rule="evenodd" clip-rule="evenodd" d="M30.3538 22.7721C30.3126 22.5825 30.2192 22.4082 30.0841 22.2689C29.949 22.1296 29.7777 22.0309 29.5894 21.9839C29.1025 21.8509 28.6298 21.6704 28.1782 21.4449C28.082 21.3996 28.0007 21.328 27.9437 21.2382C27.8867 21.1485 27.8564 21.0444 27.8564 20.9381C27.8564 20.8318 27.8867 20.7276 27.9437 20.6379C28.0007 20.5482 28.082 20.4765 28.1782 20.4313C28.699 20.1793 29.161 20.0043 29.5894 19.8923C29.7777 19.8452 29.949 19.7465 30.0841 19.6072C30.2192 19.4679 30.3126 19.2937 30.3538 19.1041C30.47 18.5217 30.6618 17.8021 30.9488 17.0979C30.983 17.0003 31.0466 16.9158 31.1308 16.8561C31.2151 16.7963 31.3159 16.7642 31.4192 16.7642C31.5225 16.7642 31.6233 16.7963 31.7076 16.8561C31.7919 16.9158 31.8555 17.0003 31.8896 17.0979C32.178 17.8021 32.3684 18.5217 32.4846 19.1041C32.526 19.2936 32.6195 19.4678 32.7545 19.6071C32.8896 19.7463 33.0608 19.8451 33.249 19.8923C33.6746 20.0043 34.1338 20.1779 34.6518 20.4299C34.7488 20.4747 34.8309 20.5465 34.8885 20.6365C34.946 20.7266 34.9766 20.8312 34.9766 20.9381C34.9766 21.0449 34.946 21.1496 34.8885 21.2396C34.8309 21.3297 34.7488 21.4014 34.6518 21.4463C34.2029 21.6708 33.733 21.8509 33.249 21.9839C33.0608 22.031 32.8896 22.1298 32.7545 22.2691C32.6195 22.4083 32.526 22.5825 32.4846 22.7721C32.349 23.4578 32.1498 24.1295 31.8896 24.7783C31.8555 24.8758 31.7919 24.9603 31.7076 25.0201C31.6233 25.0798 31.5225 25.112 31.4192 25.112C31.3159 25.112 31.2151 25.0798 31.1308 25.0201C31.0466 24.9603 30.983 24.8758 30.9488 24.7783C30.688 24.1297 30.4888 23.458 30.3538 22.7721Z" fill="url(#paint4_linear_2319_97)"/>
</g>
<path d="M37.2617 17.0704C38.2221 17.0704 39.0005 16.2919 39.0005 15.3316C39.0005 14.3713 38.2221 13.5928 37.2617 13.5928C36.3014 13.5928 35.5229 14.3713 35.5229 15.3316C35.5229 16.2919 36.3014 17.0704 37.2617 17.0704Z" fill="url(#paint5_radial_2319_97)"/>
<path d="M37.2617 17.0704C38.2221 17.0704 39.0005 16.2919 39.0005 15.3316C39.0005 14.3713 38.2221 13.5928 37.2617 13.5928C36.3014 13.5928 35.5229 14.3713 35.5229 15.3316C35.5229 16.2919 36.3014 17.0704 37.2617 17.0704Z" fill="url(#paint6_radial_2319_97)"/>
<path d="M23.6328 28.5108C24.5932 28.5108 25.3716 27.7323 25.3716 26.772C25.3716 25.8117 24.5932 25.0332 23.6328 25.0332C22.6725 25.0332 21.894 25.8117 21.894 26.772C21.894 27.7323 22.6725 28.5108 23.6328 28.5108Z" fill="url(#paint7_radial_2319_97)"/>
<path d="M23.6328 28.5108C24.5932 28.5108 25.3716 27.7323 25.3716 26.772C25.3716 25.8117 24.5932 25.0332 23.6328 25.0332C22.6725 25.0332 21.894 25.8117 21.894 26.772C21.894 27.7323 22.6725 28.5108 23.6328 28.5108Z" fill="url(#paint8_radial_2319_97)"/>
<path d="M13.8748 17.2965C14.7972 17.2965 15.545 16.5487 15.545 15.6263C15.545 14.7038 14.7972 13.9561 13.8748 13.9561C12.9524 13.9561 12.2046 14.7038 12.2046 15.6263C12.2046 16.5487 12.9524 17.2965 13.8748 17.2965Z" fill="url(#paint9_radial_2319_97)"/>
<path d="M13.8748 17.2965C14.7972 17.2965 15.545 16.5487 15.545 15.6263C15.545 14.7038 14.7972 13.9561 13.8748 13.9561C12.9524 13.9561 12.2046 14.7038 12.2046 15.6263C12.2046 16.5487 12.9524 17.2965 13.8748 17.2965Z" fill="url(#paint10_radial_2319_97)"/>
<path d="M23.661 2.80394C24.4311 2.80394 25.0554 2.17964 25.0554 1.40954C25.0554 0.639431 24.4311 0.0151367 23.661 0.0151367C22.8909 0.0151367 22.2666 0.639431 22.2666 1.40954C22.2666 2.17964 22.8909 2.80394 23.661 2.80394Z" fill="url(#paint11_radial_2319_97)"/>
<path d="M23.661 2.80394C24.4311 2.80394 25.0554 2.17964 25.0554 1.40954C25.0554 0.639431 24.4311 0.0151367 23.661 0.0151367C22.8909 0.0151367 22.2666 0.639431 22.2666 1.40954C22.2666 2.17964 22.8909 2.80394 23.661 2.80394Z" fill="url(#paint12_radial_2319_97)"/>
<g filter="url(#filter3_f_2319_97)">
<path d="M24.0597 14.3354L2.84131 35.6434" stroke="url(#paint13_linear_2319_97)" stroke-width="0.7"/>
</g>
<path d="M22.4805 13.7046L24.8913 11.2812C25.2616 10.9089 25.7647 10.6991 26.2898 10.6978C26.8149 10.6964 27.319 10.9038 27.6913 11.2742C28.0635 11.6445 28.2734 12.1476 28.2747 12.6727C28.276 13.1978 28.0686 13.7019 27.6983 14.0742L25.2987 16.485L22.4805 13.7046Z" fill="#CFC9D8"/>
<path d="M22.4805 13.7046L24.8913 11.2812C25.2616 10.9089 25.7647 10.6991 26.2898 10.6978C26.8149 10.6964 27.319 10.9038 27.6913 11.2742C28.0635 11.6445 28.2734 12.1476 28.2747 12.6727C28.276 13.1978 28.0686 13.7019 27.6983 14.0742L25.2987 16.485L22.4805 13.7046Z" fill="url(#paint14_linear_2319_97)"/>
<path d="M22.4805 13.7046L24.8913 11.2812C25.2616 10.9089 25.7647 10.6991 26.2898 10.6978C26.8149 10.6964 27.319 10.9038 27.6913 11.2742C28.0635 11.6445 28.2734 12.1476 28.2747 12.6727C28.276 13.1978 28.0686 13.7019 27.6983 14.0742L25.2987 16.485L22.4805 13.7046Z" fill="url(#paint15_linear_2319_97)"/>
<path d="M22.4805 13.7046L24.8913 11.2812C25.2616 10.9089 25.7647 10.6991 26.2898 10.6978C26.8149 10.6964 27.319 10.9038 27.6913 11.2742C28.0635 11.6445 28.2734 12.1476 28.2747 12.6727C28.276 13.1978 28.0686 13.7019 27.6983 14.0742L25.2987 16.485L22.4805 13.7046Z" fill="url(#paint16_radial_2319_97)"/>
<g filter="url(#filter4_i_2319_97)">
<path d="M0.694073 38.3947C1.46827 39.1689 2.72407 39.1675 3.49827 38.3919L5.86427 36.0147L3.05447 33.2231L0.691273 35.5989C0.321551 35.9704 0.114222 36.4733 0.114747 36.9974C0.115272 37.5215 0.323608 38.024 0.694073 38.3947Z" fill="#CFC6DD"/>
<path d="M0.694073 38.3947C1.46827 39.1689 2.72407 39.1675 3.49827 38.3919L5.86427 36.0147L3.05447 33.2231L0.691273 35.5989C0.321551 35.9704 0.114222 36.4733 0.114747 36.9974C0.115272 37.5215 0.323608 38.024 0.694073 38.3947Z" fill="url(#paint17_linear_2319_97)"/>
</g>
<path d="M0.694073 38.3947C1.46827 39.1689 2.72407 39.1675 3.49827 38.3919L5.86427 36.0147L3.05447 33.2231L0.691273 35.5989C0.321551 35.9704 0.114222 36.4733 0.114747 36.9974C0.115272 37.5215 0.323608 38.024 0.694073 38.3947Z" fill="url(#paint18_linear_2319_97)"/>
<path d="M0.694073 38.3947C1.46827 39.1689 2.72407 39.1675 3.49827 38.3919L5.86427 36.0147L3.05447 33.2231L0.691273 35.5989C0.321551 35.9704 0.114222 36.4733 0.114747 36.9974C0.115272 37.5215 0.323608 38.024 0.694073 38.3947Z" fill="url(#paint19_radial_2319_97)"/>
<defs>
<filter id="filter0_ii_2319_97" x="29.1767" y="-0.21" width="9.9449" height="11.5831" filterUnits="userSpaceOnUse" color-interpolation-filters="sRGB">
<feFlood flood-opacity="0" result="BackgroundImageFix"/>
<feBlend mode="normal" in="SourceGraphic" in2="BackgroundImageFix" result="shape"/>
<feColorMatrix in="SourceAlpha" type="matrix" values="0 0 0 0 0 0 0 0 0 0 0 0 0 0 0 0 0 0 127 0" result="hardAlpha"/>
<feOffset dx="0.21" dy="-0.21"/>
<feGaussianBlur stdDeviation="0.525"/>
<feComposite in2="hardAlpha" operator="arithmetic" k2="-1" k3="1"/>
<feColorMatrix type="matrix" values="0 0 0 0 0.94902 0 0 0 0 0.513726 0 0 0 0 0.392157 0 0 0 1 0"/>
<feBlend mode="normal" in2="shape" result="effect1_innerShadow_2319_97"/>
<feColorMatrix in="SourceAlpha" type="matrix" values="0 0 0 0 0 0 0 0 0 0 0 0 0 0 0 0 0 0 127 0" result="hardAlpha"/>
<feOffset dx="-0.21" dy="0.21"/>
<feGaussianBlur stdDeviation="0.42"/>
<feComposite in2="hardAlpha" operator="arithmetic" k2="-1" k3="1"/>
<feColorMatrix type="matrix" values="0 0 0 0 1 0 0 0 0 0.823529 0 0 0 0 0.407843 0 0 0 1 0"/>
<feBlend mode="normal" in2="effect1_innerShadow_2319_97" result="effect2_innerShadow_2319_97"/>
</filter>
<filter id="filter1_ii_2319_97" x="14.2587" y="1.19967" width="7.54012" height="8.76375" filterUnits="userSpaceOnUse" color-interpolation-filters="sRGB">
<feFlood flood-opacity="0" result="BackgroundImageFix"/>
<feBlend mode="normal" in="SourceGraphic" in2="BackgroundImageFix" result="shape"/>
<feColorMatrix in="SourceAlpha" type="matrix" values="0 0 0 0 0 0 0 0 0 0 0 0 0 0 0 0 0 0 127 0" result="hardAlpha"/>
<feOffset dx="0.21" dy="-0.21"/>
<feGaussianBlur stdDeviation="0.525"/>
<feComposite in2="hardAlpha" operator="arithmetic" k2="-1" k3="1"/>
<feColorMatrix type="matrix" values="0 0 0 0 0.94902 0 0 0 0 0.513726 0 0 0 0 0.392157 0 0 0 1 0"/>
<feBlend mode="normal" in2="shape" result="effect1_innerShadow_2319_97"/>
<feColorMatrix in="SourceAlpha" type="matrix" values="0 0 0 0 0 0 0 0 0 0 0 0 0 0 0 0 0 0 127 0" result="hardAlpha"/>
<feOffset dx="-0.21" dy="0.21"/>
<feGaussianBlur stdDeviation="0.42"/>
<feComposite in2="hardAlpha" operator="arithmetic" k2="-1" k3="1"/>
<feColorMatrix type="matrix" values="0 0 0 0 1 0 0 0 0 0.823529 0 0 0 0 0.407843 0 0 0 1 0"/>
<feBlend mode="normal" in2="effect1_innerShadow_2319_97" result="effect2_innerShadow_2319_97"/>
</filter>
<filter id="filter2_ii_2319_97" x="27.6464" y="16.5542" width="7.54012" height="8.76766" filterUnits="userSpaceOnUse" color-interpolation-filters="sRGB">
<feFlood flood-opacity="0" result="BackgroundImageFix"/>
<feBlend mode="normal" in="SourceGraphic" in2="BackgroundImageFix" result="shape"/>
<feColorMatrix in="SourceAlpha" type="matrix" values="0 0 0 0 0 0 0 0 0 0 0 0 0 0 0 0 0 0 127 0" result="hardAlpha"/>
<feOffset dx="0.21" dy="-0.21"/>
<feGaussianBlur stdDeviation="0.525"/>
<feComposite in2="hardAlpha" operator="arithmetic" k2="-1" k3="1"/>
<feColorMatrix type="matrix" values="0 0 0 0 0.94902 0 0 0 0 0.513726 0 0 0 0 0.392157 0 0 0 1 0"/>
<feBlend mode="normal" in2="shape" result="effect1_innerShadow_2319_97"/>
<feColorMatrix in="SourceAlpha" type="matrix" values="0 0 0 0 0 0 0 0 0 0 0 0 0 0 0 0 0 0 127 0" result="hardAlpha"/>
<feOffset dx="-0.21" dy="0.21"/>
<feGaussianBlur stdDeviation="0.42"/>
<feComposite in2="hardAlpha" operator="arithmetic" k2="-1" k3="1"/>
<feColorMatrix type="matrix" values="0 0 0 0 1 0 0 0 0 0.823529 0 0 0 0 0.407843 0 0 0 1 0"/>
<feBlend mode="normal" in2="effect1_innerShadow_2319_97" result="effect2_innerShadow_2319_97"/>
</filter>
<filter id="filter3_f_2319_97" x="1.89326" y="13.3884" width="23.1144" height="23.2022" filterUnits="userSpaceOnUse" color-interpolation-filters="sRGB">
<feFlood flood-opacity="0" result="BackgroundImageFix"/>
<feBlend mode="normal" in="SourceGraphic" in2="BackgroundImageFix" result="shape"/>
<feGaussianBlur stdDeviation="0.35" result="effect1_foregroundBlur_2319_97"/>
</filter>
<filter id="filter4_i_2319_97" x="-0.0252539" y="32.5231" width="5.88951" height="6.45146" filterUnits="userSpaceOnUse" color-interpolation-filters="sRGB">
<feFlood flood-opacity="0" result="BackgroundImageFix"/>
<feBlend mode="normal" in="SourceGraphic" in2="BackgroundImageFix" result="shape"/>
<feColorMatrix in="SourceAlpha" type="matrix" values="0 0 0 0 0 0 0 0 0 0 0 0 0 0 0 0 0 0 127 0" result="hardAlpha"/>
<feOffset dx="-0.14" dy="-0.7"/>
<feGaussianBlur stdDeviation="0.7"/>
<feComposite in2="hardAlpha" operator="arithmetic" k2="-1" k3="1"/>
<feColorMatrix type="matrix" values="0 0 0 0 0.698039 0 0 0 0 0.619608 0 0 0 0 0.792157 0 0 0 1 0"/>
<feBlend mode="normal" in2="shape" result="effect1_innerShadow_2319_97"/>
</filter>
<linearGradient id="paint0_linear_2319_97" x1="23.9283" y1="15.4294" x2="4.24149" y2="35.5544" gradientUnits="userSpaceOnUse">
<stop stop-color="#60105F"/>
<stop offset="1" stop-color="#54155E"/>
</linearGradient>
<linearGradient id="paint1_linear_2319_97" x1="4.70069" y1="30.8952" x2="6.75729" y2="32.9294" gradientUnits="userSpaceOnUse">
<stop stop-color="#523253"/>
<stop offset="1" stop-color="#523253" stop-opacity="0"/>
</linearGradient>
<linearGradient id="paint2_linear_2319_97" x1="37.5742" y1="2.95675" x2="32.0246" y2="8.51055" gradientUnits="userSpaceOnUse">
<stop stop-color="#FFD459"/>
<stop offset="1" stop-color="#FFA271"/>
</linearGradient>
<linearGradient id="paint3_linear_2319_97" x1="20.588" y1="3.61878" x2="16.4398" y2="7.77118" gradientUnits="userSpaceOnUse">
<stop stop-color="#FFD465"/>
<stop offset="1" stop-color="#FFAF36"/>
</linearGradient>
<linearGradient id="paint4_linear_2319_97" x1="33.9742" y1="18.9753" x2="29.826" y2="23.1277" gradientUnits="userSpaceOnUse">
<stop stop-color="#FFD465"/>
<stop offset="1" stop-color="#FFAF36"/>
</linearGradient>
<radialGradient id="paint5_radial_2319_97" cx="0" cy="0" r="1" gradientUnits="userSpaceOnUse" gradientTransform="translate(38.0317 14.6484) rotate(127.823) scale(2.62464 2.45481)">
<stop stop-color="#FFD463"/>
<stop offset="1" stop-color="#E68F2B"/>
</radialGradient>
<radialGradient id="paint6_radial_2319_97" cx="0" cy="0" r="1" gradientUnits="userSpaceOnUse" gradientTransform="translate(37.2617 14.1836) rotate(90) scale(2.88683 2.51653)">
<stop offset="0.797" stop-color="#E37A42" stop-opacity="0"/>
<stop offset="1" stop-color="#E37A42"/>
</radialGradient>
<radialGradient id="paint7_radial_2319_97" cx="0" cy="0" r="1" gradientUnits="userSpaceOnUse" gradientTransform="translate(24.4042 26.0874) rotate(127.823) scale(2.62463 2.45481)">
<stop stop-color="#FFD463"/>
<stop offset="1" stop-color="#E68F2B"/>
</radialGradient>
<radialGradient id="paint8_radial_2319_97" cx="0" cy="0" r="1" gradientUnits="userSpaceOnUse" gradientTransform="translate(23.6328 25.624) rotate(90) scale(2.88683 2.51653)">
<stop offset="0.797" stop-color="#E37A42" stop-opacity="0"/>
<stop offset="1" stop-color="#E37A42"/>
</radialGradient>
<radialGradient id="paint9_radial_2319_97" cx="0" cy="0" r="1" gradientUnits="userSpaceOnUse" gradientTransform="translate(14.6145 14.9705) rotate(127.823) scale(2.52147 2.35831)">
<stop stop-color="#FFD463"/>
<stop offset="1" stop-color="#E68F2B"/>
</radialGradient>
<radialGradient id="paint10_radial_2319_97" cx="0" cy="0" r="1" gradientUnits="userSpaceOnUse" gradientTransform="translate(13.8748 14.5231) rotate(90) scale(2.77334 2.4176)">
<stop offset="0.797" stop-color="#E37A42" stop-opacity="0"/>
<stop offset="1" stop-color="#E37A42"/>
</radialGradient>
<radialGradient id="paint11_radial_2319_97" cx="0" cy="0" r="1" gradientUnits="userSpaceOnUse" gradientTransform="translate(24.2784 0.860737) rotate(127.823) scale(2.10467 1.96848)">
<stop stop-color="#FFD463"/>
<stop offset="1" stop-color="#E68F2B"/>
</radialGradient>
<radialGradient id="paint12_radial_2319_97" cx="0" cy="0" r="1" gradientUnits="userSpaceOnUse" gradientTransform="translate(23.661 0.489737) rotate(90) scale(2.3149 2.01797)">
<stop offset="0.869" stop-color="#E37A42" stop-opacity="0"/>
<stop offset="1" stop-color="#E37A42"/>
</radialGradient>
<linearGradient id="paint13_linear_2319_97" x1="22.9663" y1="15.867" x2="2.84131" y2="35.642" gradientUnits="userSpaceOnUse">
<stop stop-color="#692167"/>
<stop offset="1" stop-color="#5B2460"/>
</linearGradient>
<linearGradient id="paint14_linear_2319_97" x1="23.3863" y1="12.6294" x2="24.7891" y2="13.9566" gradientUnits="userSpaceOnUse">
<stop stop-color="#C1BFC3"/>
<stop offset="1" stop-color="#C1BFC3" stop-opacity="0"/>
</linearGradient>
<linearGradient id="paint15_linear_2319_97" x1="26.9913" y1="15.2334" x2="26.1163" y2="14.315" gradientUnits="userSpaceOnUse">
<stop stop-color="#B0A1BF"/>
<stop offset="1" stop-color="#B0A1BF" stop-opacity="0"/>
</linearGradient>
<radialGradient id="paint16_radial_2319_97" cx="0" cy="0" r="1" gradientUnits="userSpaceOnUse" gradientTransform="translate(27.5163 11.361) rotate(133.939) scale(1.67084 2.0186)">
<stop offset="0.21" stop-color="#ECE8F2"/>
<stop offset="1" stop-color="#ECE8F2" stop-opacity="0"/>
</radialGradient>
<linearGradient id="paint17_linear_2319_97" x1="1.59707" y1="34.4187" x2="2.98867" y2="35.8089" gradientUnits="userSpaceOnUse">
<stop stop-color="#A8A6AD"/>
<stop offset="1" stop-color="#A8A6AD" stop-opacity="0"/>
</linearGradient>
<linearGradient id="paint18_linear_2319_97" x1="0.653473" y1="38.8357" x2="1.74827" y2="37.4791" gradientUnits="userSpaceOnUse">
<stop stop-color="#968FA1"/>
<stop offset="1" stop-color="#968FA1" stop-opacity="0"/>
</linearGradient>
<radialGradient id="paint19_radial_2319_97" cx="0" cy="0" r="1" gradientUnits="userSpaceOnUse" gradientTransform="translate(2.98867 33.4541) rotate(98.4726) scale(6.78972 6.93138)">
<stop offset="0.661" stop-color="#8F6EAF" stop-opacity="0"/>
<stop offset="0.918" stop-color="#8F6EAF"/>
</radialGradient>
</defs>
</svg>
