<svg width="26" height="20" viewBox="0 0 26 20" fill="none" xmlns="http://www.w3.org/2000/svg">
<path d="M20.67 0.968902C20.567 0.858372 20.4428 0.769718 20.3048 0.70823C20.1668 0.646742 20.0178 0.61368 19.8668 0.611015C19.7157 0.60835 19.5657 0.636136 19.4256 0.692718C19.2855 0.749299 19.1583 0.833516 19.0514 0.940344C18.9446 1.04717 18.8604 1.17442 18.8038 1.31451C18.7472 1.45459 18.7194 1.60463 18.7221 1.75569C18.7248 1.90674 18.7578 2.05571 18.8193 2.19371C18.8808 2.33171 18.9695 2.45591 19.08 2.5589L20.67 0.968902ZM24.375 6.2639L25.17 7.0589C25.3807 6.84796 25.499 6.56203 25.499 6.2639C25.499 5.96578 25.3807 5.67984 25.17 5.4689L24.375 6.2639ZM19.08 9.9689C18.9695 10.0719 18.8808 10.1961 18.8193 10.3341C18.7578 10.4721 18.7248 10.6211 18.7221 10.7721C18.7194 10.9232 18.7472 11.0732 18.8038 11.2133C18.8604 11.3534 18.9446 11.4806 19.0514 11.5875C19.1583 11.6943 19.2855 11.7785 19.4256 11.8351C19.5657 11.8917 19.7157 11.9195 19.8668 11.9168C20.0178 11.9141 20.1668 11.8811 20.3048 11.8196C20.4428 11.7581 20.567 11.6694 20.67 11.5589L19.08 9.9689ZM24.375 19.3889C24.6734 19.3889 24.9595 19.2704 25.1705 19.0594C25.3815 18.8484 25.5 18.5623 25.5 18.2639C25.5 17.9655 25.3815 17.6794 25.1705 17.4684C24.9595 17.2574 24.6734 17.1389 24.375 17.1389V19.3889ZM19.08 2.5589L23.58 7.0589L25.17 5.4689L20.67 0.968902L19.08 2.5589ZM23.58 5.4689L19.08 9.9689L20.67 11.5589L25.17 7.0589L23.58 5.4689ZM24.375 5.1389H7.875V7.3889H24.375V5.1389ZM0.75 12.2639C0.75 14.1536 1.50067 15.9658 2.83686 17.302C4.17306 18.6382 5.98533 19.3889 7.875 19.3889V17.1389C6.58207 17.1389 5.34209 16.6253 4.42785 15.711C3.51361 14.7968 3 13.5568 3 12.2639H0.75ZM7.875 5.1389C5.98533 5.1389 4.17306 5.88957 2.83686 7.22577C1.50067 8.56196 0.75 10.3742 0.75 12.2639H3C3 10.971 3.51361 9.731 4.42785 8.81676C5.34209 7.90252 6.58207 7.3889 7.875 7.3889V5.1389ZM24.375 17.1389H7.875V19.3889H24.375V17.1389Z" fill="black"/>
</svg>
