<svg width="25" height="20" viewBox="0 0 25 20" fill="none" xmlns="http://www.w3.org/2000/svg">
<path d="M4.83 0.968902C4.93299 0.858372 5.05719 0.769718 5.19519 0.70823C5.33319 0.646742 5.48216 0.61368 5.63322 0.611015C5.78427 0.60835 5.93431 0.636136 6.0744 0.692718C6.21448 0.749299 6.34173 0.833516 6.44856 0.940344C6.55539 1.04717 6.6396 1.17442 6.69618 1.31451C6.75277 1.45459 6.78055 1.60463 6.77789 1.75569C6.77522 1.90674 6.74216 2.05571 6.68067 2.19371C6.61918 2.33171 6.53053 2.45591 6.42 2.5589L4.83 0.968902ZM1.125 6.2639L0.329998 7.0589C0.119324 6.84796 0.000989914 6.56203 0.000989914 6.2639C0.000989914 5.96578 0.119324 5.67984 0.329998 5.4689L1.125 6.2639ZM6.42 9.9689C6.53053 10.0719 6.61918 10.1961 6.68067 10.3341C6.74216 10.4721 6.77522 10.6211 6.77789 10.7721C6.78055 10.9232 6.75277 11.0732 6.69618 11.2133C6.6396 11.3534 6.55539 11.4806 6.44856 11.5875C6.34173 11.6943 6.21448 11.7785 6.0744 11.8351C5.93431 11.8917 5.78427 11.9195 5.63322 11.9168C5.48216 11.9141 5.33319 11.8811 5.19519 11.8196C5.05719 11.7581 4.93299 11.6694 4.83 11.5589L6.42 9.9689ZM1.125 19.3889C0.826632 19.3889 0.540482 19.2704 0.329504 19.0594C0.118526 18.8484 0 18.5623 0 18.2639C0 17.9655 0.118526 17.6794 0.329504 17.4684C0.540482 17.2574 0.826632 17.1389 1.125 17.1389V19.3889ZM6.42 2.5589L1.92 7.0589L0.329998 5.4689L4.83 0.968902L6.42 2.5589ZM1.92 5.4689L6.42 9.9689L4.83 11.5589L0.329998 7.0589L1.92 5.4689ZM1.125 5.1389H17.625V7.3889H1.125V5.1389ZM24.75 12.2639C24.75 14.1536 23.9993 15.9658 22.6631 17.302C21.3269 18.6382 19.5147 19.3889 17.625 19.3889V17.1389C18.9179 17.1389 20.1579 16.6253 21.0721 15.711C21.9864 14.7968 22.5 13.5568 22.5 12.2639H24.75ZM17.625 5.1389C19.5147 5.1389 21.3269 5.88957 22.6631 7.22577C23.9993 8.56196 24.75 10.3742 24.75 12.2639H22.5C22.5 10.971 21.9864 9.731 21.0721 8.81676C20.1579 7.90252 18.9179 7.3889 17.625 7.3889V5.1389ZM1.125 17.1389H17.625V19.3889H1.125V17.1389Z" fill="black"/>
</svg>
