<svg width="13" height="10" viewBox="0 0 13 10" fill="none" xmlns="http://www.w3.org/2000/svg">
<path d="M1.07633 0.687909H11.4443C11.5493 0.688238 11.6522 0.71719 11.7419 0.771646C11.8317 0.826103 11.9049 0.904004 11.9536 0.996963C12.0024 1.08992 12.0249 1.19442 12.0187 1.29921C12.0125 1.404 11.9778 1.5051 11.9184 1.59165L6.73438 9.07965C6.51953 9.39012 6.00228 9.39012 5.78686 9.07965L0.602858 1.59165C0.542854 1.50529 0.507665 1.40412 0.501117 1.29916C0.494568 1.1942 0.51691 1.08945 0.565715 0.996295C0.614519 0.903139 0.68792 0.825138 0.777942 0.77077C0.867964 0.716401 0.971164 0.687743 1.07633 0.687909Z" fill="black"/>
</svg>
