<svg width="23" height="22" viewBox="0 0 23 22" fill="none" xmlns="http://www.w3.org/2000/svg">
<path d="M2.87607 21.8002C2.21607 21.8002 1.65127 21.5654 1.18167 21.0958C0.712074 20.6262 0.476874 20.061 0.476074 19.4002V2.6002C0.476074 1.9402 0.711274 1.3754 1.18167 0.905795C1.65207 0.436195 2.21687 0.200995 2.87607 0.200195H19.6761C20.3361 0.200195 20.9013 0.435395 21.3717 0.905795C21.8421 1.3762 22.0769 1.941 22.0761 2.6002V19.4002C22.0761 20.0602 21.8413 20.6254 21.3717 21.0958C20.9021 21.5662 20.3369 21.801 19.6761 21.8002H2.87607ZM2.87607 19.4002H19.6761V2.6002H2.87607V19.4002ZM4.07607 17.0002H18.4761L13.9761 11.0002L10.3761 15.8002L7.67607 12.2002L4.07607 17.0002Z" fill="black"/>
</svg>
