<svg width="30" height="16" viewBox="0 0 30 16" fill="none" xmlns="http://www.w3.org/2000/svg">
<path d="M13.7943 15.1281H8.09187C6.11979 15.1281 4.439 14.4329 3.04952 13.0424C1.66004 11.652 0.964818 9.9712 0.963867 8.00007C0.963867 6.02799 1.65908 4.34721 3.04952 2.95772C4.43996 1.56824 6.12074 0.873021 8.09187 0.87207H13.7943V3.72327H8.09187C6.90387 3.72327 5.89407 4.13907 5.06247 4.97067C4.23087 5.80227 3.81507 6.81207 3.81507 8.00007C3.81507 9.18807 4.23087 10.1979 5.06247 11.0295C5.89407 11.8611 6.90387 12.2769 8.09187 12.2769H13.7943V15.1281ZM9.51747 9.42567V6.57447H20.9223V9.42567H9.51747ZM16.6455 15.1281V12.2769H22.3479C23.5359 12.2769 24.5457 11.8611 25.3773 11.0295C26.2089 10.1979 26.6247 9.18807 26.6247 8.00007C26.6247 6.81207 26.2089 5.80227 25.3773 4.97067C24.5457 4.13907 23.5359 3.72327 22.3479 3.72327H16.6455V0.87207H22.3479C24.3199 0.87207 26.0012 1.56729 27.3916 2.95772C28.7821 4.34816 29.4768 6.02894 29.4759 8.00007C29.4759 9.97215 28.7807 11.6534 27.3902 13.0438C25.9998 14.4343 24.319 15.129 22.3479 15.1281H16.6455Z" fill="black"/>
</svg>
