<svg width="19" height="16" viewBox="0 0 19 16" fill="none" xmlns="http://www.w3.org/2000/svg">
<path d="M14.5231 10C14.7531 10.516 14.8691 11.09 14.8691 11.72C14.8691 13.062 14.3451 14.112 13.2981 14.867C12.2491 15.622 10.8031 16 8.95514 16C7.31514 16 5.69214 15.619 4.08514 14.855V12.601C5.60514 13.478 7.16014 13.917 8.75114 13.917C11.3021 13.917 12.5811 13.185 12.5901 11.72C12.5954 11.423 12.5408 11.1279 12.4294 10.8525C12.3181 10.5771 12.1523 10.3269 11.9421 10.117L11.8221 10H0.369141V8H18.3691V10H14.5231ZM10.4451 7H4.99814C4.82297 6.84028 4.66203 6.66562 4.51714 6.478C4.08514 5.92 3.86914 5.246 3.86914 4.452C3.86914 3.216 4.33514 2.165 5.26614 1.299C6.19914 0.433 7.64014 0 9.59114 0C11.0621 0 12.4701 0.328 13.8131 0.984V3.136C12.6131 2.449 11.2981 2.106 9.86714 2.106C7.38714 2.106 6.14814 2.888 6.14814 4.452C6.14814 4.872 6.36614 5.238 6.80214 5.551C7.23814 5.864 7.77614 6.114 8.41514 6.301C9.03514 6.481 9.71214 6.715 10.4451 7Z" fill="black"/>
</svg>
